<?xml version="1.0" encoding="UTF-8"?>
<!DOCTYPE svg PUBLIC "-//W3C//DTD SVG 1.1//EN" "http://www.w3.org/Graphics/SVG/1.1/DTD/svg11.dtd">
<svg xmlns="http://www.w3.org/2000/svg"
     version="1.1" width="1060px" height="770px" viewBox="-0.5 -0.5 1060 770">

    <defs>
        <filter id="dropShadow" x="-20%" y="-20%" width="140%" height="140%">
            <feDropShadow dx="2" dy="2" stdDeviation="2" flood-color="#888" flood-opacity="0.9"/>
        </filter>
    </defs>
    <!-- Embedded CSS-->
    <style>
        .hcCards { fill:#40C7EA;stroke:none; }
        .ceCards { fill:#FFAA5E;stroke:none; }
         .textCards text {
        font-family: "IBM Plex Sans";
        font-size: 12px;
        font-weight: bold;
        fill: #323D4F;
        }

        .title {
        font-family: "IBM Plex Sans";
        font-size: 20px;
        font-weight: bold;
        fill: #323D4F;
        }
    </style>

    <g>
        <rect x="0" y="0" width="1060" height="770" fill="#323d4f" stroke="none" pointer-events="all"/>
        <rect x="370" y="60" width="680" height="230" fill="rgb(255, 255, 255)" stroke="none" pointer-events="all"/>
        <rect x="10" y="10" width="1040" height="40" fill="#323d4f" stroke="none" pointer-events="all"/>
        <g transform="translate(-0.5 -0.5)">
            <text x="12" y="39" fill="#FFFFFF" font-family="IBM Plex Sans" font-size="30px" font-weight="bold">Aggregate
                Design Canvas
            </text>
        </g>
        <rect x="10" y="60" width="350" height="50" fill="rgb(255, 255, 255)" stroke="none" pointer-events="all"/>
        <g transform="translate(-0.5 -0.5)">
            <text id="nameText" class="title" x="19" y="91">1. Name</text>
        </g>
        <rect id="descriptionRect" x="10" y="120" width="350" height="170" fill="rgb(255, 255, 255)" stroke="none"
              pointer-events="all"/>
        <g transform="translate(-0.5 -0.5)">
            <text class="title" x="19" y="151">2.Description</text>
            <text id="descriptionText" x="19" y="151" fill="#323D4F" font-family="IBM Plex Sans" font-size="16px"></text>
        </g>
        <g transform="translate(-0.5 -0.5)">
            <text class="title" x="379" y="91">3. State Transitions</text>
        </g>
        <rect id="enforcedInvariantsRect" x="10" y="300" width="350" height="210" fill="rgb(255, 255, 255)"
              stroke="none" pointer-events="all"/>
        <g transform="translate(-0.5 -0.5)">
            <text class="title" x="19" y="331">4. Enforced Invariants</text>
        </g>
        <rect id="correctivePoliciesRect" x="10" y="520" width="350" height="200" fill="rgb(255, 255, 255)"
              stroke="none" pointer-events="all"/>
        <g transform="translate(-0.5 -0.5)">
            <text class="title" x="19" y="551">5. Corrective Policies</text>
        </g>
        <rect id="handledCommandsRect" x="370" y="300" width="350" height="210" fill="rgb(255, 255, 255)" stroke="none"
              pointer-events="all"/>
        <g id="handledCommandsGroup" transform="translate(-0.5 -0.5)">
            <text id="handledCommandsText" class="title" x="379" y="331">6. Handled Commands</text>
            <g id="cardsHc" class="hcCards textCards">
                <rect id="rectHc1" x="390" y="350" width="65" height="65" filter="url(#dropShadow)"/>
                <text id="txtHc1" x="393" y="385">text</text>
                <rect id="rectHc2" x="470" y="350" width="65" height="65" filter="url(#dropShadow)"/>
                <text id="txtHc2" x="473" y="385">text</text>
                <rect id="rectHc3" x="550" y="350" width="65" height="65" filter="url(#dropShadow)"/>
                <text id="txtHc3" x="553" y="385">text</text>
                <rect id="rectHc4" x="630" y="350" width="65" height="65" filter="url(#dropShadow)"/>
                <text id="txtHc4" x="633" y="385">text</text>
                <rect id="rectHc5" x="390" y="430" width="65" height="65" filter="url(#dropShadow)"/>
                <text id="txtHc5" x="393" y="465">text</text>
                <rect id="rectHc6" x="470" y="430" width="65" height="65" filter="url(#dropShadow)"/>
                <text id="txtHc6" x="473" y="465">text</text>
                <rect id="rectHc7" x="550" y="430" width="65" height="65" filter="url(#dropShadow)"/>
                <text id="txtHc7" x="553" y="465">text</text>
                <rect id="rectHc8" x="630" y="430" width="65" height="65" filter="url(#dropShadow)"/>
                <text id="txtHc8" x="633" y="465">text</text>
            </g>
        </g>
        <rect id="createdEventsRect" x="370" y="520" width="350" height="200" fill="rgb(255, 255, 255)" stroke="none"
              pointer-events="all"/>
        <g id="createdEventsGroup" transform="translate(-0.5 -0.5)">
            <text id="createdEventsText" class="title" x="379" y="551">7. Created Events</text>
            <g id="cardsCe" class="ceCards textCards">
                <rect id="rectCe1" x="390" y="570" width="65" height="65" filter="url(#dropShadow)"/>
                <text id="txtCe1" x="393" y="605">text</text>
                <rect id="rectCe2" x="470" y="570" width="65" height="65" filter="url(#dropShadow)"/>
                <text id="txtCe2" x="473" y="605">text</text>
                <rect id="rectCe3" x="550" y="570" width="65" height="65" filter="url(#dropShadow)"/>
                <text id="txtCe3" x="553" y="605">text</text>
                <rect id="rectCe4" x="630" y="570" width="65" height="65" filter="url(#dropShadow)"/>
                <text id="txtCe4" x="633" y="605">text</text>
                <rect id="rectCe5" x="390" y="650" width="65" height="65" filter="url(#dropShadow)"/>
                <text id="txtCe5" x="393" y="685">text</text>
                <rect id="rectCe6" x="470" y="650" width="65" height="65" filter="url(#dropShadow)"/>
                <text id="txtCe6" x="473" y="685">text</text>
                <rect id="rectCe7" x="550" y="650" width="65" height="65" filter="url(#dropShadow)"/>
                <text id="txtCe7" x="553" y="685">text</text>
                <rect id="rectCe8" x="630" y="650" width="65" height="65" filter="url(#dropShadow)"/>
                <text id="txtCe8" x="633" y="685">text</text>
            </g>
        </g>
        <rect x="730" y="300" width="320" height="210" fill="rgb(255, 255, 255)" stroke="none" pointer-events="all"/>
        <g transform="translate(-0.5 -0.5)">
            <text class="title" x="739" y="331">8. Throughput</text>
        </g>
        <rect x="910" y="360" width="60" height="40" fill="rgb(255, 255, 255)" stroke="#323d4f" pointer-events="all"/>
        <rect x="980" y="360" width="60" height="40" fill="rgb(255, 255, 255)" stroke="#323d4f" pointer-events="all"/>
        <rect x="910" y="330" width="60" height="30" fill="none" stroke="none" pointer-events="all"/>
        <g transform="translate(-0.5 -0.5)">
            <text x="940" y="349" fill="#323D4F" font-family="IBM Plex Sans" font-size="12px" text-anchor="middle"
                  font-weight="bold">Average
            </text>
        </g>
        <rect x="980" y="330" width="60" height="30" fill="none" stroke="none" pointer-events="all"/>
        <g transform="translate(-0.5 -0.5)">
            <text x="1010" y="349" fill="#323D4F" font-family="IBM Plex Sans" font-size="12px" text-anchor="middle"
                  font-weight="bold">Maximum
            </text>
        </g>
        <rect x="740" y="365" width="160" height="30" fill="none" stroke="none" pointer-events="all"/>
        <g transform="translate(-0.5 -0.5)">
            <text x="898" y="384" fill="#323D4F" font-family="IBM Plex Sans" font-size="12px" text-anchor="end"
                  font-weight="bold">Command handling rate
            </text>
        </g>
    </g>

    <rect x="740" y="415" width="160" height="30" fill="none" stroke="none" pointer-events="all"/>
    <g transform="translate(-0.5 -0.5)">
        <text x="898" y="434" fill="#323D4F" font-family="IBM Plex Sans" font-size="12px" text-anchor="end"
              font-weight="bold">Total number of clients
        </text>
    </g>
    <rect x="740" y="465" width="160" height="30" fill="none" stroke="none" pointer-events="all"/>
    <g transform="translate(-0.5 -0.5)">
        <text x="898" y="484" fill="#323D4F" font-family="IBM Plex Sans" font-size="12px" text-anchor="end"
              font-weight="bold">Concurrency conflict chance
        </text>
    </g>
    <rect x="730" y="520" width="320" height="200" fill="rgb(255, 255, 255)" stroke="none" pointer-events="all"/>
    <g transform="translate(-0.5 -0.5)">
        <text class="title" x="739" y="551">9. Size</text>
    </g>
    <rect x="740" y="575" width="160" height="30" fill="none" stroke="none" pointer-events="all"/>
    <g transform="translate(-0.5 -0.5)">
        <text x="898" y="594" fill="#323D4F" font-family="IBM Plex Sans" font-size="12px" text-anchor="end"
              font-weight="bold">Event growth rate
        </text>
    </g>
    <rect x="740" y="625" width="160" height="30" fill="none" stroke="none" pointer-events="all"/>
    <g transform="translate(-0.5 -0.5)">
        <text x="898" y="644" fill="#323D4F" font-family="IBM Plex Sans" font-size="12px" text-anchor="end"
              font-weight="bold">Lifetime of a single insta...
        </text>
    </g>
    <rect x="740" y="675" width="160" height="30" fill="none" stroke="none" pointer-events="all"/>
    <g transform="translate(-0.5 -0.5)">
        <text x="898" y="694" fill="#323D4F" font-family="IBM Plex Sans" font-size="12px" text-anchor="end"
              font-weight="bold">Number of events persisted
        </text>
    </g>
    <rect x="980" y="410" width="60" height="40" fill="rgb(255, 255, 255)" stroke="#323d4f" pointer-events="all"/>
    <rect x="910" y="410" width="60" height="40" fill="rgb(255, 255, 255)" stroke="#323d4f" pointer-events="all"/>
    <rect x="910" y="460" width="60" height="40" fill="rgb(255, 255, 255)" stroke="#323d4f" pointer-events="all"/>
    <rect x="980" y="460" width="60" height="40" fill="rgb(255, 255, 255)" stroke="#323d4f" pointer-events="all"/>
    <rect x="910" y="540" width="60" height="30" fill="none" stroke="none" pointer-events="all"/>
    <g transform="translate(-0.5 -0.5)">
        <text x="940" y="559" fill="#323D4F" font-family="IBM Plex Sans" font-size="12px" text-anchor="middle"
              font-weight="bold">Average
        </text>
    </g>
    <rect x="980" y="540" width="60" height="30" fill="none" stroke="none" pointer-events="all"/>
    <g transform="translate(-0.5 -0.5)">
        <text x="1010" y="559" fill="#323D4F" font-family="IBM Plex Sans" font-size="12px" text-anchor="middle"
              font-weight="bold">Maximum
        </text>
    </g>
    <rect x="10" y="726" width="428.57" height="35.65" fill="none" stroke="none" pointer-events="all"/>
    <g transform="translate(-0.5 -0.5)">
        <text x="12" y="747" fill="#FFFFFF" font-family="IBM Plex Sans" font-size="9px">Aggregate Design Canvas v1.1
            designed by Kacper Gunia &amp; Domain-Driven Design Crew....
        </text>
    </g>
    <rect x="480" y="726" width="468.43" height="35.65" fill="none" stroke="none" pointer-events="all"/>
    <g transform="translate(-0.5 -0.5)">
        <text x="946" y="747" fill="#FFFFFF" font-family="IBM Plex Sans" font-size="9px" text-anchor="end">This work
            is licensed under a Creative Commons Attribution 4.0 International License, CC BY 4.0....
        </text>
    </g>
    <rect x="980" y="570" width="60" height="40" fill="rgb(255, 255, 255)" stroke="#323d4f" pointer-events="all"/>
    <rect x="910" y="570" width="60" height="40" fill="rgb(255, 255, 255)" stroke="#323d4f" pointer-events="all"/>
    <rect x="910" y="620" width="60" height="40" fill="rgb(255, 255, 255)" stroke="#323d4f" pointer-events="all"/>
    <rect x="980" y="620" width="60" height="40" fill="rgb(255, 255, 255)" stroke="#323d4f" pointer-events="all"/>
    <rect x="980" y="670" width="60" height="40" fill="rgb(255, 255, 255)" stroke="#323d4f" pointer-events="all"/>
    <rect x="910" y="670" width="60" height="40" fill="rgb(255, 255, 255)" stroke="#323d4f" pointer-events="all"/>
</svg>